<svg xmlns="http://www.w3.org/2000/svg" xmlns:xlink="http://www.w3.org/1999/xlink" fill="none" version="1.1" width="48.903385162353516" height="32.5" viewBox="0 0 48.903385162353516 32.5"><path d="M41.7326,4.99792C46.8307,7.97154,50.0073,13.9969,48.5471,21.3268C47.3036,27.5692,41.502,32.5,34.8412,32.4909C28.1804,32.4818,14.0899,32.5,10.4009,32.5C6.71196,32.5,0,29.2825,0,21.524C0,14.5709,6.32205,8.91654,12.8861,10.7887C12.979,10.8152,13.1359,10.9582,13.1167,11.0234C13.0975,11.0886,13.0885,11.2153,12.8861,11.2582C7.97353,12.2986,5.86664,15.6404,5.17494,19.2139C4.45457,22.9356,6.95429,26.3518,6.96824,26.4132C6.98219,26.4747,7.12836,26.5437,7.22443,26.5437C7.3205,26.5437,7.47258,26.3959,7.48061,26.3285C7.69884,24.4973,11.016,18.614,17.4533,18.614C20.0077,18.614,22.5625,19.3298,25.1805,22.0776L25.2599,22.1615C27.9056,24.9786,30.5042,25.6568,32.3306,25.6568C36.1734,25.6568,42.9367,22.8397,42.9367,14.8839C42.9367,8.67583,38.1716,3.82412,32.0488,4.11105C31.8062,4.12242,31.767,3.88281,31.767,3.82412C31.767,3.76543,31.7285,3.62849,32.0488,3.53719C34.9375,2.71365,38.7084,3.23397,41.7326,4.99792ZM18.1892,0.250554C26.3102,-1.36668,32.3242,5.15443,33.5539,10.9191C33.5539,10.9713,33.4828,11.1422,33.4127,11.1741C33.3425,11.206,33.144,11.2647,33.0479,11.0756C30.8093,6.66889,25.926,3.45894,20.0849,4.00671C16.1909,4.37189,12.9288,6.40648,10.2987,10.1105C10.0254,10.0757,9.55571,10.1105,8.88963,10.2148C7.91049,10.3682,7.71868,10.4715,7.49439,10.5736L7.48061,10.5799C7.48061,9.51053,10.0681,1.86779,18.1892,0.250554Z" fill="#096DD9" fill-opacity="1"/></svg>